<?xml version="1.0" encoding="UTF-8"?>
<svg id="_3323c__Calque_1" data-name="3323c__Calque_1" xmlns="http://www.w3.org/2000/svg" xmlns:xlink="http://www.w3.org/1999/xlink" viewBox="0 0 1239 379.6">
  <defs>
    <style>
      .cls-1 {
        fill: #be9f56;
      }

      .cls-1, .cls-2, .cls-3, .cls-4, .cls-5, .cls-6, .cls-7, .cls-8, .cls-9, .cls-10, .cls-11, .cls-12, .cls-13, .cls-14, .cls-15, .cls-16, .cls-17, .cls-18, .cls-19, .cls-20, .cls-21, .cls-22, .cls-23, .cls-24, .cls-25, .cls-26, .cls-27, .cls-28, .cls-29, .cls-30, .cls-31, .cls-32, .cls-33, .cls-34 {
        stroke-width: 0px;
      }

      .cls-2 {
        fill: url(#Dégradé_sans_nom_13);
      }

      .cls-3 {
        fill: url(#Dégradé_sans_nom_3);
      }

      .cls-4 {
        fill: url(#Dégradé_sans_nom_9);
      }

      .cls-5 {
        fill: url(#Dégradé_sans_nom_15);
      }

      .cls-6 {
        fill: url(#Dégradé_sans_nom_12);
      }

      .cls-7 {
        fill: #03627a;
      }

      .cls-8 {
        fill: #027690;
      }

      .cls-9 {
        fill: url(#Dégradé_sans_nom_8);
      }

      .cls-10 {
        fill: url(#Dégradé_sans_nom_7);
      }

      .cls-11 {
        fill: url(#Dégradé_sans_nom_4);
      }

      .cls-12 {
        fill: url(#Dégradé_sans_nom_20);
      }

      .cls-13 {
        fill: url(#Dégradé_sans_nom_19);
      }

      .cls-35 {
        fill: #085b74;
        isolation: isolate;
        opacity: .8;
      }

      .cls-35, .cls-36 {
        stroke: #d9f4ff;
      }

      .cls-35, .cls-36, .cls-37 {
        stroke-miterlimit: 10;
      }

      .cls-14 {
        fill: #af0000;
      }

      .cls-15 {
        fill: #2d8aa9;
      }

      .cls-36 {
        fill: #8ecae9;
      }

      .cls-38 {
        opacity: .3;
      }

      .cls-16 {
        fill: #06414f;
      }

      .cls-17 {
        fill: #3a4816;
      }

      .cls-18 {
        fill: #bddaf2;
      }

      .cls-19 {
        fill: #bde1f1;
      }

      .cls-20 {
        fill: url(#Dégradé_sans_nom_11);
      }

      .cls-21 {
        fill: url(#Dégradé_sans_nom_18);
      }

      .cls-22 {
        fill: #97d3eb;
      }

      .cls-23 {
        fill: url(#Dégradé_sans_nom_2);
      }

      .cls-24 {
        fill: #89c5e5;
      }

      .cls-37 {
        fill: url(#Dégradé_sans_nom);
        stroke: #5390a9;
      }

      .cls-25 {
        fill: url(#Dégradé_sans_nom_16);
      }

      .cls-26 {
        fill: url(#Dégradé_sans_nom_17);
      }

      .cls-27 {
        fill: url(#Dégradé_sans_nom_10);
      }

      .cls-28 {
        fill: #70b1d2;
      }

      .cls-29 {
        fill: #f7f9fa;
      }

      .cls-30 {
        fill: #509ebe;
      }

      .cls-31 {
        fill: url(#Dégradé_sans_nom_14);
      }

      .cls-32 {
        fill: #e5eff5;
      }

      .cls-33 {
        fill: url(#Dégradé_sans_nom_6);
      }

      .cls-34 {
        fill: #bfb5c3;
      }
    </style>
    <linearGradient id="Dégradé_sans_nom" data-name="Dégradé sans nom" x1="294.96" y1="778.09" x2="294.96" y2="410.37" gradientTransform="translate(0 -410)" gradientUnits="userSpaceOnUse">
      <stop offset=".37" stop-color="#fff"/>
      <stop offset=".68" stop-color="#5390a9"/>
    </linearGradient>
    <linearGradient id="Dégradé_sans_nom_2" data-name="Dégradé sans nom 2" x1="317.32" y1="539.62" x2="413.08" y2="619.98" gradientTransform="translate(0 -410)" gradientUnits="userSpaceOnUse">
      <stop offset="0" stop-color="#ffb6a1"/>
      <stop offset=".72" stop-color="#983231"/>
      <stop offset="1" stop-color="#4c1312"/>
    </linearGradient>
    <linearGradient id="Dégradé_sans_nom_3" data-name="Dégradé sans nom 3" x1="316.9" y1="643.08" x2="316.9" y2="517.47" gradientTransform="translate(0 -410)" gradientUnits="userSpaceOnUse">
      <stop offset="0" stop-color="#786e58"/>
      <stop offset="1" stop-color="#36392c"/>
    </linearGradient>
    <linearGradient id="Dégradé_sans_nom_4" data-name="Dégradé sans nom 4" x1="315.39" y1="643.08" x2="315.39" y2="517.47" gradientTransform="translate(0 -410)" gradientUnits="userSpaceOnUse">
      <stop offset="0" stop-color="#786e58"/>
      <stop offset="1" stop-color="#36392c"/>
    </linearGradient>
    <linearGradient id="Dégradé_sans_nom_6" data-name="Dégradé sans nom 6" x1="319.89" y1="643.08" x2="319.89" y2="517.47" gradientTransform="translate(0 -410)" gradientUnits="userSpaceOnUse">
      <stop offset="0" stop-color="#786e58"/>
      <stop offset="1" stop-color="#36392c"/>
    </linearGradient>
    <linearGradient id="Dégradé_sans_nom_7" data-name="Dégradé sans nom 7" x1="317.55" y1="643.08" x2="317.55" y2="517.47" gradientTransform="translate(0 -410)" gradientUnits="userSpaceOnUse">
      <stop offset="0" stop-color="#786e58"/>
      <stop offset="1" stop-color="#36392c"/>
    </linearGradient>
    <linearGradient id="Dégradé_sans_nom_8" data-name="Dégradé sans nom 8" x1="427.86" y1="643.08" x2="427.86" y2="517.47" gradientTransform="translate(0 -410)" gradientUnits="userSpaceOnUse">
      <stop offset="0" stop-color="#786e58"/>
      <stop offset="1" stop-color="#36392c"/>
    </linearGradient>
    <linearGradient id="Dégradé_sans_nom_9" data-name="Dégradé sans nom 9" x1="418.89" y1="643.08" x2="418.89" y2="517.47" gradientTransform="translate(0 -410)" gradientUnits="userSpaceOnUse">
      <stop offset="0" stop-color="#786e58"/>
      <stop offset="1" stop-color="#36392c"/>
    </linearGradient>
    <linearGradient id="Dégradé_sans_nom_10" data-name="Dégradé sans nom 10" x1="329.2" y1="643.08" x2="329.2" y2="517.47" gradientTransform="translate(0 -410)" gradientUnits="userSpaceOnUse">
      <stop offset="0" stop-color="#786e58"/>
      <stop offset="1" stop-color="#36392c"/>
    </linearGradient>
    <linearGradient id="Dégradé_sans_nom_11" data-name="Dégradé sans nom 11" x1="401.3" y1="643.08" x2="401.3" y2="517.47" gradientTransform="translate(0 -410)" gradientUnits="userSpaceOnUse">
      <stop offset="0" stop-color="#786e58"/>
      <stop offset="1" stop-color="#36392c"/>
    </linearGradient>
    <linearGradient id="Dégradé_sans_nom_12" data-name="Dégradé sans nom 12" x1="328.95" y1="643.08" x2="328.95" y2="517.47" gradientTransform="translate(0 -410)" gradientUnits="userSpaceOnUse">
      <stop offset="0" stop-color="#786e58"/>
      <stop offset="1" stop-color="#36392c"/>
    </linearGradient>
    <linearGradient id="Dégradé_sans_nom_13" data-name="Dégradé sans nom 13" x1="396.9" y1="643.08" x2="396.9" y2="517.47" gradientTransform="translate(0 -410)" gradientUnits="userSpaceOnUse">
      <stop offset="0" stop-color="#786e58"/>
      <stop offset="1" stop-color="#36392c"/>
    </linearGradient>
    <linearGradient id="Dégradé_sans_nom_14" data-name="Dégradé sans nom 14" x1="384.7" y1="643.08" x2="384.7" y2="517.47" gradientTransform="translate(0 -410)" gradientUnits="userSpaceOnUse">
      <stop offset="0" stop-color="#786e58"/>
      <stop offset="1" stop-color="#36392c"/>
    </linearGradient>
    <linearGradient id="Dégradé_sans_nom_15" data-name="Dégradé sans nom 15" x1="379.34" y1="643.08" x2="379.34" y2="517.47" gradientTransform="translate(0 -410)" gradientUnits="userSpaceOnUse">
      <stop offset="0" stop-color="#786e58"/>
      <stop offset="1" stop-color="#36392c"/>
    </linearGradient>
    <linearGradient id="Dégradé_sans_nom_16" data-name="Dégradé sans nom 16" x1="379" y1="643.08" x2="379" y2="517.47" gradientTransform="translate(0 -410)" gradientUnits="userSpaceOnUse">
      <stop offset="0" stop-color="#786e58"/>
      <stop offset="1" stop-color="#36392c"/>
    </linearGradient>
    <linearGradient id="Dégradé_sans_nom_17" data-name="Dégradé sans nom 17" x1="392.46" y1="643.08" x2="392.46" y2="517.47" gradientTransform="translate(0 -410)" gradientUnits="userSpaceOnUse">
      <stop offset="0" stop-color="#786e58"/>
      <stop offset="1" stop-color="#36392c"/>
    </linearGradient>
    <linearGradient id="Dégradé_sans_nom_18" data-name="Dégradé sans nom 18" x1="394.5" y1="643.08" x2="394.5" y2="517.47" gradientTransform="translate(0 -410)" gradientUnits="userSpaceOnUse">
      <stop offset="0" stop-color="#786e58"/>
      <stop offset="1" stop-color="#36392c"/>
    </linearGradient>
    <linearGradient id="Dégradé_sans_nom_19" data-name="Dégradé sans nom 19" x1="364.5" y1="643.08" x2="364.5" y2="517.48" gradientTransform="translate(0 -410)" gradientUnits="userSpaceOnUse">
      <stop offset="0" stop-color="#786e58"/>
      <stop offset="1" stop-color="#36392c"/>
    </linearGradient>
    <linearGradient id="Dégradé_sans_nom_20" data-name="Dégradé sans nom 20" x1="394.05" y1="643.08" x2="394.05" y2="517.47" gradientTransform="translate(0 -410)" gradientUnits="userSpaceOnUse">
      <stop offset="0" stop-color="#786e58"/>
      <stop offset="1" stop-color="#36392c"/>
    </linearGradient>
  </defs>
  <g id="svg-wrapper-1icnc22cn0736b2f85e1f12">
    <path class="cls-14" d="m729.6,283.3h5.1v51.4h-5.1v-51.4Zm28.3,13.4h4.9v6.8c2-2.6,4.1-4.6,6.5-5.9s5-1.9,7.8-1.9,5.4.7,7.6,2.2c2.2,1.4,3.8,3.4,4.9,5.8,1,2.4,1.6,6.3,1.6,11.4v19.6h-4.9v-18.1c0-4.4-.2-7.3-.5-8.8-.6-2.5-1.7-4.4-3.3-5.7-1.6-1.3-3.7-1.9-6.3-1.9-3,0-5.6,1-8,2.9-2.3,2-3.9,4.4-4.6,7.3-.5,1.9-.7,5.3-.7,10.3v13.9h-4.9l-.1-37.9h0Zm75,4.1l-3.1,3.3c-2.6-2.5-5.2-3.8-7.7-3.8-1.6,0-3,.5-4.1,1.6-1.1,1-1.7,2.3-1.7,3.7,0,1.2.5,2.4,1.4,3.5s2.9,2.5,5.9,4c3.6,1.9,6.1,3.7,7.4,5.5,1.3,1.8,1.9,3.8,1.9,6,0,3.1-1.1,5.8-3.3,7.9-2.2,2.2-4.9,3.3-8.2,3.3-2.2,0-4.3-.5-6.3-1.4-2-1-3.6-2.3-5-4l3.1-3.5c2.5,2.8,5.2,4.2,8,4.2,2,0,3.6-.6,5-1.9s2.1-2.7,2.1-4.4c0-1.4-.5-2.6-1.4-3.7s-3-2.4-6.2-4.1c-3.4-1.8-5.8-3.5-7-5.2s-1.9-3.7-1.9-5.9c0-2.9,1-5.3,3-7.2,2-1.9,4.5-2.9,7.5-2.9,3.5-.1,7,1.6,10.6,5Zm25.1-18.3h4.9v14.1h7.8v4.2h-7.8v33.8h-4.9v-33.8h-6.7v-4.2h6.7v-14.1h0Zm33.8-1.5c1.1,0,2.1.4,2.9,1.2.8.8,1.2,1.7,1.2,2.9,0,1.1-.4,2-1.2,2.8s-1.7,1.2-2.9,1.2c-1.1,0-2-.4-2.8-1.2-.8-.8-1.2-1.7-1.2-2.8s.4-2.1,1.2-2.9,1.8-1.2,2.8-1.2Zm-2.4,15.7h4.9v38h-4.9v-38Zm31.5-14.2h4.9v14.1h7.8v4.2h-7.8v33.8h-4.9v-33.8h-6.7v-4.2h6.7v-14.1Zm31.6,14.2h4.9v17.8c0,4.3.2,7.3.7,8.9.7,2.3,2,4.2,4,5.5,2,1.4,4.3,2,7.1,2s5-.7,6.9-2,3.2-3,3.9-5.2c.5-1.5.7-4.6.7-9.3v-17.8h5v18.7c0,5.2-.6,9.2-1.8,11.9-1.2,2.7-3.1,4.7-5.5,6.2-2.5,1.5-5.5,2.3-9.2,2.3s-6.8-.8-9.3-2.3-4.3-3.6-5.6-6.3c-1.2-2.7-1.8-6.7-1.8-12.1v-18.3h0Zm60.5-14.2h4.9v14.1h7.8v4.2h-7.8v33.8h-4.9v-33.8h-6.7v-4.2h6.7v-14.1h0Z"/>
    <path class="cls-1" d="m513.1,236.4h37.5c4.8,0,5.5-.8,5.5-5.5,0-2.7.1-5.5,0-8.2-.1-3.6-1.1-4.5-4.7-4.5-8.7,0-17.4-.2-26.1.1-6.7.2-8.8-2.4-10.7-8-3-8.8-2.7-17.9,0-26.8,1.7-5.6,4.8-7.6,10.8-7.6,11.5,0,23,.1,34.5-.1,3.6-.1,6,1.2,7.9,4.3,3.3,5.2,3.7,11,3.5,16.9,0,.5-1,1.3-1.6,1.3-3.9.1-7.8,0-11.7.1-1.5,0-1.9-.8-1.9-2.1v-8.4c-.1-4.4-.9-5.2-5.2-5.2-6.1,0-12.3.1-18.4,0-2.5,0-3.9.9-4,3.5-.1,7.2-.2,14.5,0,21.7.1,3.1,1,3.8,4.2,3.8,9.1,0,18.2.3,27.3-.1,6.3-.2,9.2,4.4,10.4,8.5,1.5,4.9,1.5,10,0,14.9-1.5,5-4.3,8.3-10.4,8.3-14.3-.1-28.6,0-42.9,0-5.2,0-4.1,0-4.2-4.3.1-.7.2-1.4.2-2.6h0Zm486.5-8.7h15c-.2,5.3-1.4,10.1-5.3,13.6-1.2,1.1-3.4,1.8-5.1,1.8-15.1.1-30.1.1-45.2.1-1.6,0-2.5-.3-2.5-2.2.1-16.9,0-33.7.2-50.6,0-4.5,1.8-8.7,5-11.9,1.3-1.3,3.5-2.4,5.3-2.4,12.7-.2,25.4-.1,38.1-.1,4,0,5.8,2.8,7.3,5.7,2.4,4.6,2.8,9.6,2.5,14.6,0,.6-1.2,1.7-1.8,1.7-3.8.2-7.7.1-11.5.1-1.4,0-1.9-.6-1.9-2,.1-3.1.1-6.1,0-9.2-.1-3.3-1-4.2-4.3-4.2-6.5,0-12.9.1-19.4,0-2.3,0-3.6.7-3.8,3-.1,1-.4,2-.4,3,0,14.8,0,29.6-.1,44.4,0,2.3.6,3.1,3,3.1,6.9-.2,13.8,0,20.7-.1,3.2,0,4.2-1,4.2-4.3.1-1.2,0-2.5,0-4.1h0Zm-135.9-33.5h13.1v37.7c0,4.8.5,6,5.6,5.7,3.9-.2,7.8,0,12,0v-30.6c4.2,0,8.1-.1,12,.1.5,0,1.2,1.6,1.3,2.5.1,6.6.1,13.1.1,19.7,0,7.1.1,14.1,0,21.2-.1,4.6-.6,9.1-3.9,12.9-1.5,1.6-3.1,2.6-5.3,2.5-4-.1-8,0-12,0q-3.7,0-3.6-3.7c0-.6.1-1.2.2-2.1h7.6c2.8,0,3.7-.8,3.7-3.6v-12.9c-1.3-.1-2.3-.2-3.3-.2-5.6,0-11.2-.1-16.9,0-3.9.1-6.8-1.1-8.6-6-1.1-3-1.8-6.4-1.8-9.7-.2-10.1-.1-20.3-.1-30.4-.1-1.1-.1-2-.1-3.1h0Zm339.1,18.8v25.9q0,4.3-4.4,4.3h-6.6c-1.7,0-2.4-.8-2.4-2.5,0-14.2-.2-28.4.1-42.6.1-4.3.9-8.8,4.2-12.3,1.9-2,5.7-3.3,8.1-2.2.6.2.9,1.5.9,2.3.1,6.9,0,13.8,0,21,1,0,1.9.1,2.8.1,7.6,0,15.2.4,22.7-.1,6-.4,8.8,3.9,9.7,8.3.9,4.4.7,9.1.9,13.7.1,3.9-.1,7.8.1,11.7.1,2-.7,2.7-2.7,2.7-2.6-.1-5.1-.1-7.7,0-1.9.1-2.7-.6-2.7-2.7.1-7.6.1-15.2,0-22.7,0-4.8-.4-5.1-5-5.1h-17.1c-.1-.1-.3,0-.9.2Zm-152.5-6.1h19.2c1.5,0,2.4.3,2.4,2.1-.1,7.6.1,15.2-.4,22.7-.2,2.9-1.7,5.8-3,8.5-1.1,2.2-3.4,3-5.8,3h-37.6c-1.5,0-2.8-.1-2.7-2.1.1-7.7.1-15.3.4-23,.1-2,.8-4.2,1.8-6.1,1.8-3.6,4.5-5.6,8.9-5.2,5.5.4,11.2.1,16.8.1Zm8.5,5.9h-19.2c-3.3,0-4.2.9-4.2,4.2v20.5c7.1,0,13.9.1,20.7-.1,1,0,2.6-1.7,2.7-2.7.1-7.2,0-14.4,0-21.9Zm30.7,0v-5.9h28.7c5.1,0,8.4,2.4,9.5,7.5.7,3.2,1.1,6.5,1.3,9.8.2,5.4,0,10.7.1,16.1,0,2.1-.8,2.9-2.9,2.9h-38.1c-5.3,0-7.9-2.6-8.3-7.9-.1-1.8-.1-3.6,0-5.3.4-5.2,3-7.6,8.2-7.6,8.3,0,16.5-.1,24.8,0,2.3,0,3.1-.7,3-3.1-.1-6.4,0-6.5-6.3-6.5h-20,0Zm26.1,24.6v-9.7c-6.8,0-13.5-.1-20.1.1-.9,0-2.5,1.1-2.6,1.9-.3,1.9-.3,4,.1,6,.1.7,1.6,1.7,2.4,1.7,6.6.1,13.3,0,20.2,0Zm-350.4-24.7v11.3c0,5.5-.1,11.1,0,16.6,0,1.9-.6,2.6-2.5,2.6-2.8-.1-5.6,0-8.4,0-1.4,0-2.3-.5-2.3-2.1.2-9.6.3-19.2.5-28.8,0-1.3.3-2.7.9-4,2.9-6.3,4.4-7.7,11.7-6.4.1,1.5.2,3.1.3,5h5.9c7.1,0,14.1.1,21.2,0,2.4,0,4,1,5.4,2.8,2.7,3.5,3.6,7.4,3.6,11.7,0,6.4-.1,12.8,0,19.2,0,2-.7,2.8-2.7,2.7-2.6-.1-5.3-.1-7.9,0-1.9.1-2.4-.7-2.4-2.6.1-7.8.1-15.7,0-23.5,0-3.7-.8-4.4-4.5-4.5h-18.8Zm-172.1,15c0,2.4-.1,4.5,0,6.7.1,2.1,1.2,3.2,3.4,3.2,3.8-.1,7.6,0,11.5,0,.1.4.3.8.3,1.1.3,4.5.3,4.6-4.2,4.6h-14.3c-3.8,0-6.5-1.7-7.8-5.4-.8-2.3-1.7-4.7-1.8-7.1-.3-5.9-1-11.9,1.4-17.6,1.7-3.9,3.8-6.5,8.9-6.3,10,.3,19.9.1,29.9.1,4.9,0,7.3,1.6,8.5,6.2.9,3.7.9,7.5-.9,10.9-1.3,2.4-3.4,3.6-6.3,3.6-8.5-.1-17,0-25.5,0h-3.1Zm10.9-5.4h8.7c2.9-.1,3.9-1.3,3.8-4.7,0-3.6-.8-4.7-3.8-4.7-4.2,0-8.5.1-12.7,0-7.4-.2-6.9.6-7,7.4,0,1.5.5,2.2,2.1,2.1,3-.2,6-.1,8.9-.1Zm105.1,5.4c.2,2.8.2,5.4.7,8,.2.8,1.8,1.7,2.8,1.8,3.9.2,7.8.1,11.4.1.3.3.4.4.4.5q.6,5.2-4.7,5.2c-4.1,0-8.2-.2-12.3,0-6.2.3-8.6-2.2-10.3-8.3-1.8-6.5-1.6-13.2,0-19.7.6-2.3,1.9-4.6,3.5-6.3,1-1.1,3.1-1.9,4.7-1.9,10.6-.2,21.3-.1,31.9-.1,4.6,0,7.4,2.2,8,6.8.3,2.6.2,5.4-.2,8.1-.6,3.9-3.3,5.9-7.3,5.9h-25.3c-.8-.1-1.8-.1-3.3-.1h0Zm11.3-5.4h8.7c2.1,0,3.4-.9,3.4-3.2,0-.9.1-1.9,0-2.8-.2-3-.7-3.5-3.8-3.5h-12.8c-6.5,0-7.1.6-6.7,7.1v.3c0,1.5.8,2.1,2.2,2.1,3.1-.1,6,0,9,0h0Zm-68.4-15.4c7.9,0,15.4.1,23-.1,3.7-.1,6.5,1.4,8.2,4.4,2.3,3.8,4.1,7.9,4.7,12.8-4.1,0-7.9.1-11.7-.1-.5,0-1.3-1.1-1.5-1.9-.6-2.2-.9-4.5-1.7-6.6-.4-1.1-1.7-2.5-2.6-2.5-6.1-.2-12.2-.1-18.6-.1v9.6c0,6-.1,11.9,0,17.9,0,2-.6,2.9-2.6,2.8h-8.4c-1.8,0-2.5-.8-2.5-2.7.1-12.3.1-24.5,0-36.8,0-1.7.6-2.3,2.2-2.2,2.7.1,5.5.2,8.2,0,2.5-.2,3.5.7,3.1,3.1-.1.8.1,1.4.2,2.4h0Zm195-23.6v23.6h8.9v5.8h-8.8v16.4q0,8.1,7.9,8.4c.2,0,.5.1.7.1.1.2.3.3.3.5q.4,5-4.7,5c-2,0-4.1-.1-6.1,0-5.6.4-8.7-2-10-8.2-1.1-5.3-.8-10.8-1.1-16.2-.1-1.4.1-2.9-.1-4.3-.1-.6-1-1.6-1.4-1.5-3,.4-3.2-1.4-3-3.6.1-.7.2-1.5.3-2.3,1.4-.1,2.5-.2,4.2-.3v-5.1c0-3.6.1-7.2,0-10.7-.1-1.9.5-3.1,2.5-3.7,3.2-1,6.5-2.4,10.4-3.9h0Zm325.7,54.1c.2.6.3.8.3,1.1.4,4.6.3,4.7-4.4,4.7h-23.3c-6.3,0-8.8-1.1-10.4-7.2-2-7.9-2.5-16.2.9-24,1.5-3.4,4-5.2,8.1-5.2,12.1.2,24.2.1,36.3,0,2.3,0,2.9.8,2.9,2.9s-.7,3-3,2.9c-9.7-.1-19.4,0-29.1,0-3.7,0-4.3.6-4.3,4.3-.1,5.3,0,10.6,0,15.8,0,3.9.8,4.6,4.6,4.6,7.1.1,14.2.1,21.4.1h0Zm-350.6-35.9v22.2c0,5.6-.1,11.2,0,16.8.1,2.1-.8,2.7-2.7,2.7-2.7-.1-5.4,0-8.2,0-1.5,0-2.3-.5-2.3-2.2,0-12.5,0-25,.1-37.5,0-.7.8-1.9,1.3-1.9,3.8-.1,7.6-.1,11.8-.1h0Zm-.1-18.1c0,3.5.1,6.6,0,9.7-.1,2-1.3,3.1-3.6,3-3-.1-6.1,0-9.5,0,.2-3.6.1-6.9.6-10.1.1-1,1.6-2.4,2.6-2.4,3-.4,6.3-.2,9.9-.2Z"/>
    <path class="cls-16" d="m0,379.6h589.5l-20.6-25.6H20.6L0,379.6Z"/>
    <path class="cls-7" d="m20.6,354h548.3l-15-18.7H35.6l-15,18.7Z"/>
    <path class="cls-8" d="m35.6,335.3h518.3l-15.1-18.7H50.7l-15.1,18.7Z"/>
    <path class="cls-15" d="m50.7,316.6h488.1l-15-18.6H65.7l-15,18.6Z"/>
    <path class="cls-30" d="m65.7,298h458.1l-15-18.7H80.7l-15,18.7Z"/>
    <path class="cls-28" d="m80.7,279.3h428.1l-15.1-18.7H95.8l-15.1,18.7Z"/>
    <path class="cls-24" d="m95.8,260.6h397.9l-15-18.7H110.8l-15,18.7Z"/>
    <path class="cls-22" d="m110.8,241.9h367.9l-15.1-18.7H125.8l-15,18.7Z"/>
    <path class="cls-19" d="m125.8,223.2h337.8l-15-18.6H140.9l-15.1,18.6Z"/>
    <path class="cls-32" d="m448.6,204.6l-15-18.7H155.9l-15,18.7h307.7Z"/>
    <path class="cls-29" d="m294.7,13.4l-138.8,172.5h277.7L294.7,13.4Z"/>
    <g class="cls-38">
      <path class="cls-18" d="m424.5,168.1v-.4c.8-5.4-1.4-10.2-3.1-15.1-.1-.3-.2-.7-.3-1,1.1,5.4,2.3,10.7,3.4,16.1v.1c0,.1.1.3.1.4,1.8,14.6.7,28.9-3.6,43,.4-.3.6-.6.7-.9,3.8-11.8,4.9-23.9,4.2-36.2-.2-1.9-.9-3.9-1.4-6h0Z"/>
      <path class="cls-17" d="m365.8,87.3c-.6-.3-1.1-.5-1.7-.8-8.2-4-16.7-7.2-25.8-8.6-.1,0-.2-.1-.3-.1-.3,0-.5,0-.8-.1-22.7-4.7-44.1-2.7-63.8,7.4-1.1.6-2.3,1.2-3.4,1.8-3,1.7-5.9,3.6-8.8,5.7-9.5,6.8-16.7,15.7-21.7,26.3-6.6,14-8,28.6-5.4,43.7.5,2.7.6,5.4,1,9-4.3-3.3-6.1-7.3-7.5-11.2-10.4-29.4-3.3-55.2,17.6-77.4,16.6-17.6,38.1-26.5,61.8-29.5,29.2-3.6,57,1.8,83.2,15.2l10.5,5.4c2.4,1.7,4.8,3.3,7.3,5,.3-.5.6-1,.9-1.6l-7.5-3.9c-3-1.6-5.9-3.1-8.9-4.7-16.6-8.6-34.1-14.2-52.7-16.4-24.9-2.8-48.7.3-71.2,11.8-15.6,8-28.5,19.2-37,34.6-13.6,24.6-14.2,49.5-.1,74.1,3.2,5.6,8.3,10.2,12.7,15.1.7.7,2.2.7,2.9.9-3.3-7.8-7.1-15-9.4-22.6-6.9-22.9-2.9-44.2,12.7-62.3,18.9-22,44-29.3,72.2-27.9,4.8.2,9.6.8,14.4,1.3.3.1.5.1.8.2.2,0,.3.1.5.1,2.1.8,4.2,1.6,6.2,2.4-9-1-17.9-2.1-26.9-2.1-10.9,0-21.6,2.2-31.4,7-9.4,4.6-19.2,8.6-25.3,18.1-3.5,5.4-7.3,10.6-9,16.9-.4,1.4-.3,3-.4,4.4.3.3.6.6.9.8,24.8-32.6,56.9-38.4,94.2-26.5-.7-.4-1-.7-1.4-.9-13.8-5.1-28-7.1-42.6-5.1-14.5,2-27.3,7.9-38.9,16.7-1.2.9-2.7,1.6-4,2.4-.2-.3-.5-.5-.7-.8.6-1.3,1-2.8,1.7-4,6.4-10,15.2-17,26.4-21,3.6-1.3,7.2-2.6,10.8-3.8.8,0,1.5.1,2.3.1.4-.1.9-.2,1.3-.3.3,0,.6.2,1,.3-2.9,1.4-5.4,2.7-7.9,4,.1.3.2.7.4,1,2.7,0,5.5.1,8.2,0,18.9-.7,36.9,2.7,53.7,11.7,1.2.6,2.3,1.3,3.5,2,1.1.7,2.3,1.4,3.4,2.1s2.3,1.4,3.4,2.1,2.3,1.4,3.4,2.1c.2.2.4.3.6.5,3,2.6,6,5.3,9.1,7.9,2.7,3.2,5.3,6.4,8,9.6.3-.2.5-.5.8-.7l-8.7-9c-3.2-2.8-6.4-5.7-9.6-8.5-1.5-1.2-2.9-2.6-4.5-3.6-14.2-9.6-29.9-15.1-46.8-17.5-2.5-.3-4.9-1-7.3-1.5,0-.3.1-.7.1-1,9-3.4,18.1-1.8,27.8.1-.9-.6-1.3-.8-1.9-1.3,1.3,0,2.2-.2,3.1,0,6.3,1.6,12.7,3.1,18.9,5.1,19.3,6.2,34,19.1,46.8,33.9,14.2,16.2,21.7,35.8,23.4,57.4.5,6.5.1,13.1.1,19.6.7-2,1.1-4,1.1-6,1.1-29.7-8.6-55.5-28.3-77.7-10.4-11.6-23.4-20.3-37.5-27.4h0Zm-3.9,143.4c-18.9,12-39.6,17-61.9,15.7l-14.4-.9c24.6,5.3,48.3,1.4,71.7-7.4-.4,1.5-.9,2.6-1.7,3.3-7,6-14.8,10.6-23.7,13-5.4,1.4-10.7,3.1-16.1,4.6-.9.3-1.9.4-2.8.6-16,3.2-31.9.7-47.6-2-13.9-2.4-26.9-8-39.1-15-2.8-1.6-5.6-3.3-8.4-4.9.1.7.4,1.1.8,1.4,7.7,4.6,15.3,9.4,23.3,13.5l1.8.9c3.9,1.8,8.1,3,12.1,4.5.3.1.6.3.9.4h.4c4.5,1.4,8.9,2.9,13.4,4.2.7.2,1.3.4,2,.5,12.4,3.2,24.9,3.8,38.2,2.5-.9-.1-1.2-.2-1.5-.2-17,.6-33.5-1.5-49.7-6.7-.8-.2-1.6-.3-2.4-.3-.1,0-.2-.1-.4-.1-.3-.1-.7-.2-1-.4-2.7-1.3-5.5-2.5-8.2-3.8,1.2,0,2.3.2,3.4.6,20.9,7.4,42.5,8.9,64.4,6.6,2.1-.2,4.1-1.2,6.1-1.8.2-.1.4-.2.6-.2,14.1-2.9,26.6-9.3,38.3-17.4,6.1-4.2,10.1-10,13.8-16.1.4-.6.4-1.5.8-3-1.5.7-2.4,1-3.1,1.5-3.4,2.1-6.7,4.3-10,6.4h0Z"/>
      <path class="cls-17" d="m294.2,109.4c14.9-6.6,30.1-7,45.5-2.5,4.2,1.2,8.3,2.9,12.4,4.4-3.8-2.1-7.7-3.8-11.8-5-17.9-5.3-35.4-4.6-51.8,5-14.7,8.6-22.1,24.1-19.5,40.9,0,.3.1.6.2.9.5,2.1,1.5,4.1,2.2,6.2v.3l.1.1c.5,3.4,2.5,5.9,4.7,8.3.5.6,1,1.1,1.6,1.7l-6.3-9.9v-.2c0-.1-.1-.2-.1-.3-.2-1.2-.3-2.5-.5-3.6,1.6,1.8,3.2,3.6,4.7,5.3.4-.2.7-.4,1.1-.6.1-2.3.3-4.6.4-7,1-14,8-23.9,20.9-29.4,14.6-6.2,28.7-4,42.4,3.2,2.1,1.1,4,2.3,6,3.5-5.7-5-12.4-8-19.7-9.7-7.3-1.8-14.7-1.9-22-.3s-14.4,4.5-19.3,10.2c-4.7,5.5-8.3,11.9-12.6,18.1-.4-.8-1.1-1.6-1.3-2.4-1.3-4.6-1.4-9.5.7-13.6,5.2-9.7,11.2-18.8,22-23.6h0Z"/>
      <path class="cls-34" d="m247.6,170.1c.1.1.1.2.2.3.4,1.1.6,2.2,1.2,3.2,12.4,21,30.9,32.4,55.2,33.4,17.1.7,31.8-5.3,42.5-19.2,2.6-3.4,5-7,8.1-11.2,2.6,9-1.5,15.8-4.6,23,2.4-3.2,4.8-6.4,6.2-10.1,1.3-3.5,2.1-7.5,2.2-11.3.1-3.9-.3-8-1.6-11.7-1.2-3.3-3.9-6-6.1-9.2.6,2.5,1.6,4.7,1.5,6.9-.3,6.7-1.9,13.2-5.2,19.1-8.8,15.3-22.8,22.1-39.7,22.6-21.8.6-39.5-8.3-52.9-25.5-.6-.8-1.2-1.6-1.8-2.5-1.7-2.5-3.3-5-4.9-7.5l-.3-.3c0-.1,0-.2-.1-.2-.2-.8-.3-1.6-.5-2.3-.1-.3-.2-.5-.3-.8-5.8-14.5-5.8-29,.1-43.4,1.4-3.3,3-6.5,4.6-9.7-8.2,12-11.1,25.3-9.2,39.6.8,5.8,1.9,11.6,5.3,16.6.1.1.1.2.1.2h0Z"/>
      <path class="cls-18" d="m301.2,140.5c7.6-6.4,16.4-6.9,25.5-4.2,3.1.9,6,2.3,9,3.4-3.3-2.1-6.8-3.8-10.5-4.7-9.8-2.3-19-1.3-26.5,6.4-4.8,4.8-5.5,12.7-2,18.1,3.5,5.4,9.5,7.1,16.4,4.6,3.7-1.4,6.7.5,6.3,4.5-.2,2.1-1.1,4.5-2.4,6.1-4.5,5.5-10.8,6.7-17.4,6.1-7.4-.6-13.8-3.8-19.3-8.8-.2.2-.4.4-.5.6,1.4,1.1,2.7,2.3,4.1,3.2,9.7,6.3,19.8,8.6,30.6,2.9,6-3.2,8.6-10,6-15.2-2-4-5.1-4.7-8.5-2-3.8,2.9-8.8,2.5-12.3-.9-5.7-5.7-5.2-14.6,1.5-20.1h0Z"/>
      <path class="cls-17" d="m171.1,71c-2.4,4.9-3.9,10.2-4,15.7l-.1.1v.3c-.1.2-.3.4-.4.6-5.2,18.7-5.7,37.6-3,56.7.4,2.8,1.1,5.5,1.7,8.3.5-.7.5-1.3.4-1.9-3.8-16.4-3.8-32.9-1.2-49.5.7-4.8,1.7-9.5,2.5-14.2,0-.1.1-.1.1-.2v-.2c.3-.4.6-.7.7-1.1,3.6-12.2,8.5-24,15-35,.2-.3.2-.8.3-1.2-.3-.1-.5-.2-.8-.3-3.8,7.3-7.6,14.6-11.2,21.9h0Z"/>
      <path class="cls-18" d="m181.7,192.7c-4.6-11-9.3-22.5-14.1-34,2.8,12.4,7.8,23.8,14.1,34Zm81.4,78c21.4,5.2,47.2,5.9,57.7,1.8-19.4,3.5-38.6,2.1-57.7-1.8Zm148.2-191.8c-.4.4-.8.7-1.1,1.1,7.6,6.6,15.2,13.2,22.9,19.8.2-.2.4-.5.7-.7-7.6-6.8-15.1-13.5-22.5-20.2Zm-248.2,17c-4.7,16.3-5.3,44.1-1.2,55.1-3.3-18.4-2.7-36.8,1.2-55.1Zm253.5,112c5.2-16.1,5.6-32.4,1.3-48.8,3.9,16.4,3.1,32.6-1.3,48.8Zm-23.8-11.2c3.6-12.1,3.8-24.3,0-36.4,2.8,12.1,2.7,24.3,0,36.4h0Zm-176,34.5c-6.9-6.5-14-13.1-21.2-19.8,3.9,6.4,19,20.2,21.2,19.8Zm184.6-80.5c3.5,10,4.5,20.4,4,31-.1,1.3-.3,2.6-.4,3.8-.1,1.1-.2,2.3-.2,3.4,1.9-8.7,1.9-17.5.3-26.2-.1-.6-.2-1.2-.4-1.8-1-4.1-2.5-8.1-3.7-12.1,0-.2-.1-.4-.1-.6,0-.1-.1-.2-.1-.2-1-5.4-3.8-9.9-6.7-14.3-.4-.6-.9-1.3-1.3-1.9,2.7,5.4,5.4,10.8,8,16.2,0,.1,0,.2.1.3.1.2.1.4.2.6,0,.2.1.4.1.6,0,.4.1.8.2,1.2Z"/>
      <path class="cls-17" d="m364.5,153.3c4.3,11.4,4.7,22.8,1.3,34.4,4.1-11.7,3.8-23.2-1.3-34.4h0Z"/>
      <path class="cls-18" d="m214.2,126.1c-1,8.6-1,18.9,0,27.5v-27.5Zm194.5,62.7c-1.9,7.6-3.9,15.8-5.9,24,2.9-8,5.8-16,5.9-24Zm-8.5-3.2h1v-19h-1v19Zm-96.7,74h-16.4v-.3c5.5.3,11,.7,16.5,1-.1-.3-.1-.7-.1-.7Z"/>
    </g>
    <path class="cls-37" d="m401.2,69.1c-.3-1.5-1.7-1.4-2.8-1.2-1.5.2-3,1.5-4.6.1.6-2,2.4-2.8,3.5-4.2,1.7-2.2.7-3.2-1.5-3.9l-.6-.6h0c.1-1-.2-1.6-.7-2.1-.9-1-2.6-1.4-3.6-2.3-.5-.4-.9-1-1-1.8-2.4,2.1-4,.7-6-.9-1.2-.9-2.1.4-2.3,1.7-.3,1.5-.5,3-.6,4.4-.4,8.3-3.2,14.8-11.7,18.3-4.7,1.9-9.8,3.3-13.8,6.7-2.5,2.1-4.4,5-7.7,6.3-11,4.5-22,7.9-34.2,6.2-7.9-1.1-8.4-1.2-5.3-8.4,2-4.4,1-6.3-3.4-8.2-3.5-1.6-7.5-2.7-9.2-6.9-1-2.5-2.8-1.4-4.6-.7-5.4,2-10.7,5.1-16.3.5-.5-.4-1.9-.6-2.3-.2-4,3.1-6.5.3-9.2-2.2-1.6-1.4-3.4-2.6-5.3-3.7-5.5-3.3-11-6.4-14.3-12.5-3-5.6-7.8-9.9-12.2-14.4-3.7-3.7-8.5-7.2-7.3-13.8.9-4.6,1.1-9.2,3-13.6.6-1.4,2.5-3,.4-4.4-2.2-1.5-3.7.4-5.1,1.8-.7.7-1.2,1.6-1.5,2.6-1.8,4.5-4.6,4.2-7.7,1.4-2.9-2.7-5.5-5.7-8.5-8.4-2.2-1.9-4-7.8-7.8-1.5-.1.1-.6.1-.9,0-2.8-1-3.2,1.2-4.8,2.6-3.6,3.2-3.4,4.9-.1,7.5.2.2.3,1.1.1,1.2-5.8,4.1.6,4.8,2,5.6,11.4,7.2,20.6,16.5,27.5,28.1,3.2,5.4,7.3,10.2,11.3,15.1,6.6,8.2,16.1,14.1,19.8,24.6,1,3,2.1,5.9,4.2,8.4,3.3,3.9,7.5,7.4,9.7,11.9,5,10.2,7.9,21.4,12.3,31.9,2.1,5,4.7,10.6,4.1,16.6-.5,5.5,3.3,8.7,7.2,11.7,1.1.9,2.9,1,3.4,2.6-.2.2-.5.4-.7.7-.3.3-.5.7-.7,1.1-.2.4-.4.9-.4,1.4-2.3,3.3-1.8,7.2-1.8,10.9-.3.9-.6,1.8-.8,2.7-.1.6-.3,1.3-.3,1.9,0,.1,0,.2-.1.3-.2,1.3-.3,2.6-.4,3.9-.1.7-.1,1.5-.1,2.2,0,.6-.1,1.3-.1,1.9-.1,1-.2,2-.4,3-1,1.7-1,3.4.1,5.1,0,1.8-.8,3.2-2.3,4.1-1.5.9-2.9,2.4-2.8,4,.4,6-1.5,11.9.1,17.8.6,2.3,0,4.1-.7,6.2-5.5,15.1-11.7,29.9-12.6,46.4-.3,6.5-.9,13.2-2.1,19.6-1.3,6.9-1.9,13.7-2.5,20.7-.2,3,.3,5.5,3,7.5,1.8,1.3,2.2,2.5.6,4.9-3.4,5-2.6,7.4,1.6,12.1,1.4,1.6,3.5,1.6,4.8,3.3,5.1,6.9,12.7,10.5,20,14.3,3.1,1.7,7.3,1.5,9.8-1.2,2.1-2.3.2-5.3-1.1-7.9-.5-1-1-2.1-1.7-3.1l-12-18.3c-1.5-2.3-2.1-4.7-1.1-7.5,2.7-7.8,6.3-15.5,2.8-24.1-.3-.7,0-1.6.3-2.4,1.6-5.8,3-11.6,4.9-17.2,1.6-5,3.8-9.7,5.8-14.6.4.1.8.3,1.2.4,0,8.3.3,16.6-.1,24.9-.4,7.8-.9,15.6,1.7,23.2.5,1.5.1,3.2-.8,3.6-4,1.7-4,6.3-6.8,8.9-1.3,1.2-1.2,3.2,0,5.1,1.6,2.6,4,3.9,6.3,5.4,3,1.9,6.4,2.6,9.3,5.2,7.2,6.6,14.7,13.8,25.9,12.9,1.5-.1,3.6.6,4.2-1.6.6-2.1.8-4.4-1.1-6-1.4-1.2-2.9-2.2-4.4-3.2-6.8-4.4-12-16.7-9.3-24.2,2.8-7.5,2.1-14.6.1-21.9-.6-2.3-.6-4.5,0-6.8,3.1-12.2,7.6-24.1,9.7-36.6,1.6-9.2,3.9-18.1,7.2-26.9,3.1-8.2,5.9-16.7,4.4-25.7.2-.6.3-1.2.3-1.9v-.6c0-.8-.1-1.7-.3-2.5.2-1.1.2-2.3.2-3.4-.1-2.6-.6-5-1.4-7.5-.7-2.1-1.5-4.1-2.3-6.2l-2.7-9c.1-.1.1-.3.2-.4.2-.9,0-2,1-2.6,1.6-3.8,2.2-7.7,1.9-11.6-.1-1.3-.3-2.6-.6-4-1-4.9-2.4-9.6-3.5-14.5-.3-1.2-.9-2.8.3-3.7,1-.7,2.2.2,3.2.8,2.4,1.3,5,2,7.6,1.9,3-.2,3.8-1.8,2.3-4.4-3.5-6-7-12-10.7-17.9-1.6-2.5-1.6-5.1,1-5.7,6.1-1.5,9.3-6.1,13.7-9.8,6.6-5.5,13.2-10.9,19-17.2,6-6.5,10.9-14.2,20.7-15.7,1.4-.1,2.2-1.1,1.9-2.4h0Z"/>
    <circle class="cls-23" cx="365.2" cy="169.8" r="62.5"/>
    <path class="cls-3" d="m316.3,133.2c.6-.3,1.2-1,1.2-1.6-.4.5-1,.9-1.2,1.6Z"/>
    <path class="cls-11" d="m315.5,134.7c-.1.2-.4.3-.3.8.2,0,.3-.2.4-.3-.5,0,.2-.4-.1-.5Z"/>
    <path class="cls-33" d="m319.2,129.6c.5-.7,1.7-1.4,1.3-2.6-.6.7-1.1,1.9-1.3,2.6Z"/>
    <path class="cls-10" d="m316.6,131.7c.6-.5,1.7-1.1,1.9-1.7-.7.2-1.7,1-1.9,1.7Z"/>
    <path class="cls-9" d="m427.9,172.6v-1.9c-.1.6-.1,1.2,0,1.9Z"/>
    <path class="cls-4" d="m419.1,138.3c-.2-.3-.4-.6-.5-.9.1.4.3.8.5,1.2.1-.1.1-.3,0-.3Z"/>
    <path class="cls-27" d="m329.3,126.3c-.1.1-.1.2-.2.3,0,0,0-.1.1-.1,0-.1.1-.1.1-.2Z"/>
    <path class="cls-20" d="m398.9,117.3c1.6,1.3,3.2,2.4,4.8,3.4-1.6-1.2-3.2-2.3-4.8-3.4Z"/>
    <path class="cls-6" d="m331.8,122.9c.3.2.3.8.7.9,2.7.2,2.7-2.2,4.2-3.2-.9-.5-1.4.6-2.4.3-.2-.3-.1-.3-.1-.7-1.5.4-2.1,1.7-3.4,2.3.1-.3.4-.5.6-.7,0-.2-.3,0-.4-.1.4-.7,1-1.2,1.9-1.4-.2-.2-.8-.3-.5-.7-2.2.1-3.5,1.7-5,2.7-.3,1-1.1,1.6-1.8,2.5-.5.6-.9,1.4-1.4,1.8-1,.8-2.5,1.1-3,2.4.9-.3,1.3-1.2,2.2-1.4.4-.1.8.1,1.2,0,.6-.2,1.7-1.4,2.3-1.8,1-.6,1.8-1,2.6-1.5.3.8.1,1.6-.2,2.1.7-.9,1.7-1.7,1.7-3.2.1-.3.6-.2.8-.3h0Z"/>
    <path class="cls-2" d="m394.7,176c-.1.6-.5.4-1,.5-.1.2-.2.3-.2.6,1.7.9,2.4,2.8,4.4,3.4.7-.1,1.3-.3,2-.4.3-.6.4-1.1.4-1.9-.9.1-1.7.2-2.5.5-1.3-.6-2.1-1.7-3.1-2.7h0Z"/>
    <path class="cls-31" d="m382.6,182.4c-.7-.5-2.8-1.9-2.9-.4,0,.5.9,1.5,1.4,2.5.6,1.1,1.1,2.4,2.7,2.1.3.3.6.4.7.8-1.2,2.2.8,4.1,2.6,4.6.2.5.6.9,1,1.3.6,0,1.1.2,1.6.2-.3-1.1-.7-2.1-.9-3.3-2.2-2.4-5.3-4-6.2-7.8h0Z"/>
    <path class="cls-5" d="m379.5,208.5c0,.1.1.4-.1.4-.3,0-.8-.1-1,.1-.1.5.1.6.2,1,1.1,0,1.5-.6,1.7-1.5q-.3-.1-.8,0h0Z"/>
    <path class="cls-25" d="m383.1,166.4c.6-.1,1.5-.5,1.5-1,0-.4-1.5-1.5-2.1-1.7s-1.4,0-1.8-.4c.2-.7,1.1-1.7.2-2.2-1,.7-2,1.4-2.6,2.6.4.4,1.6,0,1.9.1-.5.4-.9.9-1.5,1.2-.4-.2-1.1-.1-1.5-.4-.1-.5.6-.6.4-.9-.9-.1-1.5-1.4-2.5-1.2-.5.1-.8.7-1.2,1,.1,1.1-.2,2.6-.1,4-.1.2-.6.5-.3.7,1-.6,2.7-.8,4.3-1.2.4-.1.8-.4,1.2-.4.9-.2,2.8,0,4.1-.2h0Z"/>
    <path class="cls-26" d="m395.5,167.2c-.6-1.2-1.3-2.3-1.9-3.5-1.3-.6-2.2-1.6-2.6-3.1.7-.4.9-1.4,1.2-2.1-.2,0-.1-.2-.3-.2,0,.3-.2.4-.3.6-.3,0-.4-.2-.7-.2-.5.4-.9,1-1.4,1.5-.5,2.4,1.6,3.5,2.6,5.1-.1.3-.3.5-.4.9.3,1,1,1.4,1.6,2.1.5-.1,1.3-.1,1.8-.2.1-.5.3-.6.4-.9h0Z"/>
    <path class="cls-21" d="m394.7,163.9c0-.4-.1-.5-.4-.6,0,.2,0,.6.4.6Z"/>
    <path class="cls-13" d="m425.9,169.7c-.7-1.1-.9-2.7-2.6-2.7-.4,1.1-.8,1.8-1,3.2-.1.5-.4,1-.5,1.5-.1.6,0,1.4-.2,2-.6,1.7-1.5,3.1-1.6,4.6,0,.8.3,1.6.3,2.4.1,2.3-.7,4.1-1.4,6,0-.6-.6-.5-1.1-.7-.2-.9-.8-1.3-1.3-1.9.1-.6-.1-.9-.1-1.4-.3-.4-.7-.7-1-1.1-.3-1.8-.3-3.8-1.6-4.6-.4.1-.4.6-.8.7-1.3-.7-2-2-3.9-2.1-.1-.2-.4-.2-.3-.6-1.6.4-2.6,1.4-3.6,2.6-1.3-.4-2.6-.4-3.7.2,0,1,1.2,1,1.7,1.5.6.5.7,1.2,1.2,1.7-.6,1.6-1.2,3.1-1.3,5.1-.7,1.5-2.1,1.5-3.4,2.2-.8.4-1.1,1.4-1.7,2.1-.8.8-1.9,1.4-3.1,2.2-1.1.8-3.9,1.9-3.9,2.4v.8c0,1.4,4.3-1.5,5.8-2,.5,0,.9.1,1.3.2.6,1.2-.3,1.8-.8,2.9-.3.6-.7,1.4-.9,1.9-.2.6-.2,1.4-.5,2-.4.8-1.6,1.7-2.4,2.4-1.5,1.2-2.6,3.2-3.6,4.1-.5.4-1.2.6-1.7,1-1.1.9-1.6,2.1-2.5,3,.7,1.8.4,4.5.8,7-1.4,1.9-4,2.7-5.9,4.1-.3.6-.7,1-.6,2-.7.4-1.4.9-2,1.6-.2.2,0,.5-.1.7-1.2,1.7-3.8,2.5-6.4,3.1-2.3.5-5.4,1.3-8,.3-.1-.2-.1-.5-.2-.7-1.2-.6-2.7-1.5-3.5-2.6-.4-.5-.4-1-.7-1.7-.6-1.2-2.1-1.7-2.7-2.8.5-.7.1-1.9.4-2.6.2-.5.8-.6,1.2-.9-.1-1.1.2-1.7.7-2.2-2-2.3-3.8-5-6-7.1,0-1.3.7-2.6,1.4-3.5-.3-.6-.8-1-1.3-1.4-2,.1-3.6-.3-4.3-1.5-.8-.1-1.3-.8-2.1-.8-1-.1-2.1.4-3,.4-1.5.1-2.4-.5-3.6-.7-1.9-.4-3.9-.3-5.4-1.1-.7-.4-1.3-1.2-2-1.9-.6-.6-1.5-1.4-1.7-2.1-.3-.9-.2-1.7-.5-2.4-.6-1.2-1.7-1.7-2.5-3,.6-2.1-1.2-3.9.3-5.4.3-1.5.4-2.8.7-4,.5-1.9,1.7-3.5,3.2-4.4,1.1-.6,2.4-.8,3.5-1.5.9-.6,1.4-1.6,2-2.4.1-.4-.3-.4-.1-.6.5,0,.9-.3,1.4-.5.5-.1,1,0,1.5-.3.6-.3,1.2-1.5,1.8-1.6.7,0,1.3,1.2,1.9,1.3s1.2-.5,1.9-.6c1.1-.2,3-.3,4.3-.2,1.3.2,2.5.6,3.7.7.6,0,1.2-.2,1.9-.2.2.9.8,1.4,1,2.1.2.7,0,1.4.3,2,.6,1.1,1.5.5,2.7.7.8.2,1.6,1.5,2.6,1.9s1.7.2,2.4.9c.5-.4.7-1.1.8-1.9.4-.3,1-.5,1.4-.7,2.4.2,4.9,1.8,7.3,1.6.5,0,1-.4,1.5-.5.8-.1,1.7.1,2.3-.4.3.1.6.1.8.2.8-1.3,2.2-3.2,1.1-5.3-1.7.9-4.4.1-6.6.6-.4-.9-.8-1.9-1.5-2.6,0-1.1.3-1.8.7-2.3-1,1.1-3.5-.3-4,1.2.2.9.4,1.8,1,2.4,0,.4-.4,0-.6.2,0,.6.8.4.7,1.1-.6-.1-1-.1-1.3.2-.5-.1-.5-.4-1.2-.2-.7-.8-.5-1.9-1-2.6-.4-.7-1.8-.9-1.9-1.9,0-.4.4-.6.5-1-.3-1.1-1.9-1.4-2.8-2.1-.5-.3-.7-1-1.2-1.2-.6-.2-1.2-.1-1.7-.3,0,.7.4,1.1.5,1.7,1,.6,2.2,1,2.8,2.1.8.1,1.6.9,1.3,1.7-.5.1-.3-.4-.7-.4-.5.4-.4,1.5-.6,2.1-.3,0-.4.3-.7.2-.3-.7.1-1.3-.2-2.4-.6-.8-1.7-.9-2.5-1.3-.5-.3-.9-.9-1.5-1.4-.7-.6-1.5-1-1.7-1.9-1,.2-1.8.5-2.9.5-.6,0-1.2-.3-1.8-.1-.6.2-.9,1.2-1.5,1.7s-1.1.4-1.6.7c-.4.9-.8,2-1.8,2.5-.4.2-1.1.2-1.6.3-.6.2-1.4.5-2.3.3-1.3-.3-2.1-1.9-3.3-2,.1-1.2.2-2.1.2-3.4l1.8-2.7c2.1.1,5.3,1.5,6.3-.7-.1-1.4-.7-2.4-1-3.5,1-.8,2.2-.4,3.3-.6,1.7-.3,2.2-2.2,3.6-2.8,1-.5,1.9-.2,2.7-1,.4,0,.6.1.9.2.7-1,.5-2.8,1.5-3.4.1,1,.7,1.5,1,2.3-.4.1-.8.2-.9.7.4.7,1.9.5,2.8.7.5.1.9.3,1.3.2,1.3-.1,2.4-1.2,3.7-1.1.2-1.2.1-2.6,1.7-2.5.3-.5.3-1.5.2-2.2-1-.4-1.7-1.1-2-2.3.8-.9,1.7-1.5,1.9-3-.9.1-1.3.7-2,1.4s-1.6,1.2-1.7,2.2c-.2,1,.5.5.9,2.5h-.4c.3,1-1.4,2.7-2.5,3.6-.5-.1-1.1-.1-1.7-.1-.5-1.2-1.2-2.2-1.8-3.3-.9-.2-1.9-.3-2.6-.7-.3-1.7.1-2.7.8-3.7,1.9-.6,3.7-1.3,4.4-3.1,1.7-.1,1.8-2,3.5-2.1.5-.9,1.2-1.5,2.7-1.8s2.5-.6,3.5.5c1.4-.2,2.9.5,4.2.8.4.1.9,0,1.2.1.6.2.7.9,1.1,1.2-.6.9-2.4,1-3.8.8-.3.2.4.5-.2.6.4.8,1.2,1.2,2.1,1.5.3-.8,1.2-.8,1.4-1.7.9-.1.9-1,2-1,0-.6-.5-1.1-.7-1.8.4-.1,1.1.2,1.7.3.7-.8,1.8-1.1,2.6-1.9,1.1-.1,1.3-1,2.3-1.2.1-.8.6-1.2,1.2-1.5.9.3,1.6.2,2.2-.2-.6-1.3-1.9-2.2-1.8-4,1,.6,1.9,1.2,2.9,1.7,0-.6-.9-1.1-1.2-1.7,1.5.3,1.5-.9,2.4-1.3-.3-.3-.9-.1-1.3-.6,0-.1.2-.1.3-.1-.7-1.3-.3-3.2-1.1-4.4.2-.7.8-.9,1.2-1.4-.2-.7-.8-1-1.1-1.7.2-.7.6-1.3,1.2-1.2.9,0,1.4,1.6,2.4,1.6,0-.8-.6-1-.7-1.7.2,0,.3,0,.4-.2-.2-.6-.4-1.3-.7-1.8.1-.5.5-.6.7-.9-.5-1.1-1.9-1.5-2.8-2.3-.5-.4-.8-1.2-1.7-1.3-.2-.4-.8-.5-.8-1.1-.4-.2-1-.2-1.1-.7-1.2-.4-2.1-.9-3.2-1.5-1-.5-2.6-.9-4-1.2,7,1.5,13.5,4.2,19.4,7.8-9.6-6-21-9.4-33.1-9.4-34.7,0-62.8,28.1-62.8,62.8s28.1,62.8,62.8,62.8c31.3,0,57.3-22.9,62-52.9,0-.2,0-.4.1-.6.2-1.4.4-2.8.5-4.2-.1-.4-.2-.9-.3-1.5.4-1.7.6-5.4-1-3.8h0Zm-55.5,4.3c.3.2,1,.4.8.7-.4-.3-.4.1-.9.1,0-.3-.1-.7.1-.8Zm-11.8-3.2c.3,0,.4.3.7.4.8-.6,1.7-.5,2.1.3-.3.4-.7.7-.8,1.3-.7-.5-1.3-1-2.2-1.2,0-.2.1-.5.2-.8h0Zm-3-4.9c.3,0,.3.3.5.4,0,.3-.2.2-.3.4-.4-.1-.2-.5-.2-.8h0Zm.6,1.9c.5,1.1-.5,1.2-.4,2.3-.6-.4-.9-1-1.1-1.8.3-.4.9-.9,1.5-.5Zm31.7-45.6c-.5.1-1-.3-1.3-.5.3-.6.9-.1,1.4-.2-.3.2-.1.3-.1.7Zm.4-7.3c-.7.4-1.6-.3-1.8-.9.7-.4,1,.8,1.8.9Zm-1.1,7.7c-.3.4-1,.3-1.3.7-.6-.2-.9-.8-1.5-1,.4-1.1,2.5-.5,2.8.3Zm-5.8,8.3c-.1-.2-.1-.6-.1-1,.6-.3,2.3-1.3,2.6-.2-.3,0-.4.2-.7.2-.2.9-.6,1.5-1.1,2,.3.7.1,1.4-.1,2.1.2.8,1.3.6,1.2,1.7-.8,0-1.5,0-2.1-.3-.9-.9-1.1-3.9.3-4.5h0Zm-39.6,8.7c.1-.5.4-.8.6-1.2.9.5,2.1.3,3.1.7.7.3,1,.9,1.4,1.4-1.2.3-2.3.5-3.2,1.1-1-.4-1.5-1.1-1.9-2Zm2.1,14.8c-.3-.3-.7-.5-.8-.9.7-1.3,1.8-2.1,2.9-3.1,2,1.1-.9,3.5-2.1,4Zm7.6.9c-.8,1.2-3.2.9-4.3,1.8-.3-.4-.9-.5-1.1-1,1.1-1.8,2.5-3.3,2.9-5.8-.3-.4-.8-.6-1.2-1,.6-.7,1.6-2.2,2.6-1.1.4,1.6-.4,2.9-.1,4.4.2.9,1.4,1.6,1.2,2.7h0Zm3.8-27.1c-1.4.2-2.8.5-4,1,0,.3.4,0,.3.3-.1.1-.2.3-.3.5-1.3-.1-1.6,1.2-2.4,1.9-.7.6-1.8.8-2.4,1.5-.2.2-.3.6-.5.8s-.4.2-.7.3c-.6.4-1.2,1-1.9,1.2-1.6-.3-2.6-1.3-4.4-1.1-.7.1-1.5.6-2.5.3-.2-.2-.6-.4-.8-.6-2.1.1-3.2,4.3-5.4,1.8,0-2.2,1.5-2.8,1.7-4.7,1-1.1,2-2.1,3.6-2.6.3,0,.5,0,.7.1.9-.1.4-1.5,1.2-1.7.4-.1.3.4.7.3.1,0,.2-.1.3-.2,0-.3-.1-.4-.1-.7,1.1-1.2,2.6-2.1,3.3-3.7,0-.3-.4-.2-.4-.4.4-1.5,1.3-2.4,2.9-2.6.2.1.4.3.2.6.7,0,.9.5,1.7.4-.1.4.2.4.2.7.5-.1,1-.2,1.6-.3.6.3.6,1.2,1.6,1.2.3,0,0,.2.2.4.4,0,.6-.1,1-.1.5,1.1,1.4,1.8,2.8,2.1.1.7-.2,1-.2,1.6,1.1,0,1.2,1.4,2.1,1.3.4,0-.1.2-.1.4h0Zm-13.1-12.4c.2.1-.2.3.1.4-.5.3-.9.6-1.7.4.2-.6,1-.6,1.6-.8Zm-1.7.3c.6-.9,1.8-2,3.1-1.4-.8.7-1.8,1.1-3.1,1.4Zm3.9-.7c.1-.3.4-.4.7-.2-.5,1-2.1.9-2.4,2.1.2-.2,1.6-1.1,2-.2.8-.3,1.6.3,2.3,0-.2,0-.6-.4-.1-.4-.4-.2-1.6.5-1.7-.3.7-.5,1.5-.9,2.5-1.1.4.4,1,.6,1.2,1.1,0,.4-.3.4-.4.7.1.1.4.1.5.2-.2.5-.4.9-.7,1.4-.1.3.4.1.4.2-.1.4-.6.4-.3.9-1.3-.2-2.7.1-3.9-.2.1-1.4-1.9-.4-2.6-1-.1-.5.4-.4.5-.7-.9.2-1.1,1.1-2.1,1.2.1-.2.2-.3.3-.5.4-1.8,2.1-2.7,3.8-3.2h0Zm3-2.9c0,.1.2,0,.2.2-.5.7-1.2.2-2,.7,1-.8,2.2-1.8,3.7-1.7-.6.3-1.3.5-1.9.8h0Zm.9,1.4c-.1.3-1,.4-1.5.7-.6-.7,1.4-.9,1.5-.7Zm-2.5.3c-.7.2-.9.9-2,.7.6-.3,1.2-1.4,2-.7Zm5.5-2.7c-.5.2-1.1.2-1.7.3.2-.3.7-.3.7-.9.5,0,.7-.4,1.2-.2-.1.2-.2.4-.2.8Zm16.8,18.8c-.3.5-.6.8-.9,1.2-.3-.1-.7-.2-1-.3-.1,1.2-1.1,1.6-2.2,1.8-.4-.9-1.6-1.5-1.3-2.5.5-.3,1.2-.3,1.8-.5.5.3,1,.6,1.4.9-.1-1.3,1.2-.8,2.2-.6h0Zm-63,22.5c.2-.7.4-1.3.6-2,0,1.2-.4,2.7-.8,3.7,0-.5.1-1.1.2-1.7h0Zm-.4,1.4c0,.4-.2.9-.3,1.2l.3-1.2Zm.1,1.3c-.1,1.3-.5,3.1-.8,4.4-.2-1.5.3-3.1.8-4.4Zm-.8,4.6c.4.3.3,1.7-.2,1.8-.2-.6.1-1.4.2-1.8Zm11.3,48.1c-7.9-10.5-12.6-23.6-12.6-37.8,0-.9,0-1.8.1-2.7.1-.3.1-.6.2-.9.5,2.6.9,6.3,1,9.7,0,.4-.1.8-.1,1.2.1.7.9,1.6,1.2,2.2.4,1.1.8,2.3,1.1,3.5.3,1.3.4,2.6.7,3.8.1.4.5.8.7,1.2.6,1.3,1,2.6,1.7,3.8.5.8,1.5,1.3,2.1,2.1.7.9,1.2,2.2,1.9,3.3,1,1.6,1.8,2.9,2.1,5.1-1.3.4-.9,1.2-.5,2.5.3,1.2.5,2.5,1.1,3.3-.4-.1-.6-.2-.7-.3h0Zm9.8-74.9c-.3.6-.6,1.2-.8,1.8-.4.8-.8,1.4-1.1,2.3-1.1.7-1.9,1.8-2.5,3.1.1,1.5-.9,2.5-1.5,3.5-1.1-.8-.7-2.4-.5-3.9.6-.7,1.7-1,2.3-1.8-.2-.3-.7.5-.8,0-.5-.6-.3-2-.8-2.6-.6.3-.5,1.2-.6,1.9-1.1,1-1.9,2.4-2.4,4-.3-.3-.5-.7-1.2-.7.1-.6.5-.7.7-1.2-.7-.6-2.3-.6-2.5.5-.2-.3-.3-.7-.3-1.2-1.1.9-1.6,2.4-3,3.1-.2,0-.4,0-.3-.2-.6.5-.9,1.3-1.3,2,0-.2.1-.4.2-.5l.6-1.2c.5-.8,1-1.6,1.3-2.5.2-.4.5-.8.7-1.2.8-1.1,1.5-2.3,2.3-3.5,2.4-3.4,5-6.6,8-9.4,1-.9,2-1.7,2.9-2.5.5-.4,1-.9,1.5-1.3,3-2.4,6.2-4.5,9.6-6.4,1.3-.6,2.7-1.3,4.1-1.9.6-.3,1.1-.6,1.7-.8,7.4-3,15.4-4.7,23.9-4.7h.9c-6,.2-11.9.5-16.2,2.5-2.1.3-3.4,1.3-5.1,1.8q0,.1-.1.1c.9,0,2-.6,3-.5.1-.2-.2-.1-.3-.2.9-.6,1.8-1.2,3.5-1-1.7,1.1-4.4,1.2-5.7,2.7-1.6.9-3.7,1.3-5.4,2.1.2-.9,1.2-1,1.7-1.7-1.3.5-2,1.5-3.1,2.3.1.2.5,0,.5.3-.2.8-1.4.7-2.1,1.1,1.1.4,1.8-.9,3.2-.8-1.5.8-3.2,1.6-4.4,2.8.2.2.4.4.8.4.7-1.5,2.1-2.3,4.3-2.3-.1.7-.7.9-1.2,1.2.2.1.7-.1,1,0-.4.7-1.1,1.3-1.3,2.1-.9.6-1.7,1.2-2.5,1.8-.1.3.4,0,.3.3-.6,1-1.8,1.4-2.5,2.4-.4.7-.6,1.5-1.2,2-.5.1-.9.3-1.3.5-.3-.5.2-1.1.3-1.7-1.4.5-1.6,2.6-3.6,2-.1-.5.1-.9.3-1.3-.9,1.3-3.1,1.9-3.2,3.6.3.2,1.1,0,1.2.1-.4.7-1.3,1.5-2,2.7h0Zm66.1,88v.7c0,1.1-2.8,2.6-4.4,1.3.4-.9,1-1.8,2.2-2,.4-1.4.9-2.8,2.2-3.5.4-.2.9-.2,1.2-.4.5-.3.9-1,1.3-1.6.7-.8.7-1.8,1.6-1.7.9,4-1.1,5.6-4.1,7.2h0Zm29.5-33.6c-.3-1.1-.9-2-.4-3.6.2-.2.5-.2.5-.6.7,1,.8,3.5-.1,4.2h0Z"/>
    <path class="cls-12" d="m394.1,163.6c.2,0,.1-.5-.1-.4-.1.1-.2.5.1.4Z"/>
    <path class="cls-36" d="m221.8,237.9c-1-1.3-1.3-2.5-1.3-4.1,0-4.4-1.8-7.2-5.9-8.8-3.6-1.4-7.5-2.1-11.3-2.2-8.6-.2-16.8,2-24.7,5.3-2.3,1-4.5,1.8-7.1,1.6-2.1-.1-4.2.4-6.3.9-1.4.4-1.9,1.1-1.1,2.5.9,1.7.5,3.3-.3,5-1,2-2.5,3.7-3.8,5.5-4,5.7-6.5,12.1-8.8,18.5-2.2,6.2-3.8,12.6-4.6,19.1h.1c-.2,1.2-.5,2.4-.5,3.6,0,3.1-1.1,5-4,6.6-5.2,2.9-8.7,7.4-10.2,13.3-.2.9-.6,1.8.3,2.5.9.6,1.6-.1,2.3-.5,5.1-3.6,11.1-4.4,17-5.2,3.9-.5,7.2,1.4,10.5,3,2.2,1,3.6,0,3.2-2.4-.1-1-.6-1.9-1.1-2.7-2.2-3.2-5.2-5.6-8.5-7.4-2.4-1.3-3.3-2.9-2.3-5.5.6-1.5.8-3.2,1.1-4.8l.5-.5c3.2-9.5,10.3-15.1,18.8-19.2,6.9-3.3,14.3-5.5,20.6-10.1,1-.7,2.1-2,3.1-1.8,1.2.2.8,2.1,1.6,3.1,2.1,2.5,2.7,5.6,2.5,8.8,0,.5-.3,1.2.4,1.6,2.4-.9,4-2.8,5.1-5,1.7-3.7,2.2-7.6,1.9-11.6-.1-2.1.9-2.7,2.7-2.9,2.9-.3,5.7-.7,8.5-1.6,3.2-1,3.6-2,1.6-4.6h0Z"/>
    <path class="cls-35" d="m455.1,358.4c-.7.9-.9,1.7-.9,2.8,0,3-1.3,4.9-4,6-2.5.9-5.1,1.5-7.7,1.5-5.9.1-11.4-1.3-16.8-3.6-1.6-.7-3.1-1.2-4.9-1.1-1.5.1-2.9-.3-4.3-.6-1-.3-1.3-.7-.8-1.7.6-1.1.4-2.2-.2-3.4-.7-1.4-1.7-2.5-2.6-3.7-2.7-3.8-4.4-8.2-6-12.6-1.5-4.2-2.6-8.6-3.1-13h.1c-.1-.8-.4-1.7-.3-2.5,0-2.1-.8-3.4-2.7-4.5-3.6-2-5.9-5-6.9-9.1-.1-.6-.4-1.2.2-1.7.6-.4,1.1,0,1.5.4,3.5,2.4,7.5,3,11.6,3.5,2.7.3,4.9-1,7.2-2,1.5-.7,2.4,0,2.2,1.6-.1.7-.4,1.3-.8,1.8-1.5,2.2-3.5,3.8-5.8,5.1-1.6.9-2.3,1.9-1.6,3.8.4,1,.5,2.2.8,3.3.1.1.2.2.3.4,2.1,6.4,7,10.3,12.8,13.1,4.7,2.3,9.8,3.7,14,6.9.7.5,1.5,1.3,2.1,1.3.8-.1.6-1.4,1.1-2.1,1.4-1.7,1.8-3.8,1.7-6,0-.3-.2-.8.3-1.1,1.7.6,2.7,1.9,3.4,3.4,1.1,2.5,1.5,5.2,1.3,7.9-.1,1.4.6,1.8,1.8,2,1.9.2,3.9.5,5.8,1.1,2.2.3,2.5,1,1.2,2.8h0Z"/>
  </g>
</svg>